<svg width="160" height="138" viewBox="0 0 160 138" fill="none" xmlns="http://www.w3.org/2000/svg">
<g clip-path="url(#clip0_8292_40725)">
<path d="M0 22.6838H36.9198C49.2264 22.6838 59.9321 24.9994 69.0227 29.6304C78.1133 34.2615 85.117 40.8793 90.0196 49.4839C94.9223 58.0885 97.3664 68.2225 97.3664 79.8716C97.3664 91.5207 94.9223 101.655 90.0196 110.259C85.117 118.864 78.1133 125.482 69.0227 130.113C59.9321 134.744 49.2264 137.059 36.9198 137.059H0V22.6838ZM36.2766 119.078C49.1263 119.078 59.1174 115.791 66.2641 109.187C73.3965 102.598 76.9698 92.8214 76.9698 79.8573C76.9698 66.8932 73.3965 57.1166 66.2641 50.5273C59.1317 43.9381 49.1263 40.6363 36.2766 40.6363H20.4252V119.064H36.2766V119.078Z" fill="#1D1D1F"/>
<path d="M159.228 22.998L160 22.6979L152.396 9.80525L151.967 9.11917L133.357 23.6698L136.587 0.829015L136.716 0H120.665L124.024 23.6698L105.414 9.11917L97.3807 22.6979L119.636 31.6741L98.1526 40.3359L97.3807 40.6361L104.985 53.5287L105.414 54.2148L124.024 39.6641L120.793 62.5192L120.665 63.3339H136.716L133.357 39.6641L151.967 54.2148L160 40.6361L137.745 31.6741L159.228 22.998Z" fill="#1D1D1F"/>
</g>
<defs>
<clipPath id="clip0_8292_40725">
<rect width="160" height="137.059" fill="white"/>
</clipPath>
</defs>
</svg>
